<?xml version="1.0" standalone="no"?>
<!DOCTYPE svg PUBLIC "-//W3C//DTD SVG 20010904//EN"
 "http://www.w3.org/TR/2001/REC-SVG-20010904/DTD/svg10.dtd">
<svg version="1.0" xmlns="http://www.w3.org/2000/svg"
 width="512.000000pt" height="512.000000pt" viewBox="0 0 512.000000 512.000000"
 preserveAspectRatio="xMidYMid meet">
<metadata>
Created by potrace 1.14, written by Peter Selinger 2001-2017
</metadata>
<g transform="translate(0.000000,512.000000) scale(0.100000,-0.100000)"
fill="#000000" stroke="none">
<path d="M1142 5110 c-159 -34 -283 -157 -327 -325 -23 -89 -15 -194 21 -280
4 -10 -17 6 -48 37 -178 178 -459 181 -624 6 -161 -170 -165 -407 -9 -584 56
-64 133 -109 224 -132 l73 -19 -57 -11 c-210 -43 -370 -251 -352 -461 31 -366
470 -521 740 -260 32 31 55 49 52 40 -4 -9 -13 -41 -21 -71 -51 -194 51 -412
236 -503 61 -30 71 -32 175 -32 138 0 199 22 284 100 132 123 180 312 122 480
l-18 50 61 -60 c34 -34 87 -74 121 -90 l60 -30 65 -141 c163 -353 279 -745
360 -1214 28 -164 70 -479 70 -524 0 -12 -20 12 -49 60 -100 161 -243 290
-416 374 -241 117 -506 131 -777 40 -171 -57 -328 -149 -356 -206 -15 -33 -15
-42 0 -133 80 -465 358 -789 776 -903 106 -29 332 -31 447 -4 115 27 238 71
331 120 l81 43 7 -205 c7 -224 10 -239 66 -262 40 -17 86 -4 113 32 19 25 20
41 18 345 -3 513 32 787 144 1114 33 96 167 381 199 422 13 17 17 17 71 1 42
-12 83 -15 150 -12 83 3 101 8 169 42 45 22 97 58 126 87 l49 49 -15 -42 c-71
-201 31 -450 220 -539 261 -122 548 25 607 310 14 66 7 169 -14 229 l-15 43
59 -56 c85 -81 167 -117 283 -123 108 -5 184 12 259 60 160 102 237 312 178
486 -53 156 -161 256 -326 303 -40 12 -51 18 -33 18 39 1 136 39 183 71 63 43
124 115 158 188 30 62 32 75 32 173 0 101 -1 108 -38 181 -61 125 -150 201
-272 232 -153 40 -317 -5 -431 -118 l-52 -53 15 41 c21 58 28 172 14 235 -50
232 -264 382 -491 343 -172 -29 -298 -150 -345 -327 -23 -89 -15 -194 20 -279
5 -10 -14 5 -40 33 -59 63 -164 118 -258 134 -186 31 -375 -70 -458 -247 -98
-209 0 -466 216 -567 34 -16 82 -33 106 -38 l44 -7 -43 -8 c-112 -20 -250
-123 -307 -228 -74 -136 -70 -313 10 -430 14 -20 25 -40 25 -43 0 -3 -25 -49
-56 -101 -74 -126 -128 -243 -180 -389 -33 -94 -43 -115 -48 -95 -3 14 -17 95
-31 180 -68 413 -185 825 -322 1140 -74 171 -73 155 -15 174 143 48 259 197
278 358 24 209 -135 420 -352 469 l-55 12 72 19 c131 33 231 113 289 232 82
167 57 341 -72 481 -161 177 -452 176 -627 -3 l-57 -58 20 56 c24 71 26 195 3
270 -37 124 -140 237 -253 279 -64 25 -179 34 -242 21z m183 -916 c115 -29
202 -100 258 -209 39 -76 49 -199 24 -286 -35 -119 -139 -223 -261 -261 -286
-88 -562 162 -501 453 32 155 134 262 288 304 69 18 120 18 192 -1z m2732
-1068 c129 -59 213 -186 221 -332 5 -100 -13 -169 -65 -244 -174 -249 -546
-217 -676 58 -29 62 -32 75 -32 167 0 87 4 108 27 156 44 96 115 163 217 206
48 20 70 23 151 21 80 -3 105 -8 157 -32z"/>
</g>
</svg>
